<svg width="180" height="180" viewBox="0 0 180 180" fill="none" xmlns="http://www.w3.org/2000/svg">
<rect width="180" height="180" fill="white"/>
<g opacity="0.995725">
<path d="M90.8214 1.45824L38.775 91.3909L90.9574 179.535L141.329 90.4652L90.8214 1.45824Z" fill="#BBFCCE"/>
<path d="M51.9062 30.8125C51.6799 30.8693 51.4731 31.034 51.3438 31.25C51.085 31.682 51.2242 32.2412 51.6562 32.5C54.4283 34.3049 55.5837 37.6031 56.1875 40.7188C57.4347 47.154 56.8639 53.9551 56.0625 60.4062C54.898 69.7807 52.765 79.0048 50.5938 88.1875C48.3281 97.7694 45.9963 107.376 42.9688 116.75C41.93 119.966 40.8303 123.159 39.5312 126.281C38.418 128.957 37.1124 131.538 35.75 134.094C33.5587 133.921 31.3722 133.68 29.2188 133.25C26.1649 132.64 22.7612 131.494 19.6562 132.531C15.3944 133.956 15.1982 139.512 17.2812 142.875C17.6495 143.47 18.1776 143.967 18.6875 144.438C23.8539 149.207 31.1943 148.946 36.6562 144.812C39.0553 142.997 40.6041 140.461 42.2188 137.969C42.2443 137.929 42.2558 137.883 42.2812 137.844C44.7395 137.984 47.1886 138.045 49.6562 137.906C57.9798 137.44 66.0986 135.18 73.875 132.281C75.5985 131.538 76.3683 129.536 75.625 127.812C74.8817 126.089 72.8798 125.319 71.1562 126.062C62.6992 130.243 53.7468 133.456 44.2812 134.156C46.7459 129.707 48.8355 125.079 50.25 120.156C52.9272 110.838 54.5483 101.206 56.1562 91.6562C57.9629 80.9274 59.6857 70.1687 60.125 59.2812C60.3954 52.5787 60.4261 45.4617 58.375 39C57.3462 35.7588 55.6474 32.6317 52.5938 30.9375C52.3777 30.8081 52.1326 30.7557 51.9062 30.8125ZM23.8125 134.969C25.457 135.14 27.0673 135.562 28.6875 135.875C30.5655 136.237 32.458 136.579 34.3438 136.906C33.7936 137.975 33.186 139.014 32.375 139.875C31.0698 141.26 29.3901 142.379 27.5312 142.844C24.848 143.515 22.1179 142.546 20.25 140.969C19.7863 140.577 19.5728 139.732 19.4062 139.188C19.2721 138.749 19.1547 138.271 19.125 137.812C18.9389 134.938 21.5871 134.737 23.8125 134.969Z" fill="#262626"/>
<path d="M86.5938 9.00001C85.2919 9.02262 84.2661 9.97322 83.7812 11.25C83.3766 12.3156 83.2877 13.5733 83.0938 14.6875C82.6808 17.059 82.3391 19.4528 82.0625 21.8438C81.7058 24.927 81.4562 28.0437 81.3438 31.1562C81.3017 31.4046 81.293 31.6581 81.25 31.9062C79.73 40.6801 77.7002 49.4456 74.4375 57.75C72.2482 63.3225 69.4788 68.6783 65.3125 73.0312C64.9524 73.3833 64.9292 73.9836 65.2812 74.3438C65.6333 74.7039 66.2336 74.6958 66.5938 74.3438C73.3929 68.1104 77.4153 59.4322 80.5625 50.9062C81.0907 49.4753 81.5213 48.0106 82 46.5625C82.0114 46.6868 82.0198 46.8133 82.0312 46.9375C82.1281 47.9871 82.2261 49.015 82.3438 50.0625C82.7049 53.2782 83.0608 58.9265 87 59.9375C90.752 60.9005 93.6052 56.5355 95.1562 53.8438C97.4135 49.9264 99.0775 45.6694 100.5 41.375C101.666 54.9902 105.235 69.197 116.781 77.5C118.359 78.5022 120.435 78.0469 121.438 76.4688C122.44 74.8906 121.984 72.7835 120.406 71.7812C114.588 68.6098 110.537 63.3116 107.656 57.4375C104.36 50.7151 102.57 43.4538 102.125 36.0312C102.896 33.2704 103.6 30.4778 104.062 27.6562C104.506 24.9522 104.836 22.1049 104.406 19.375C104.336 18.9288 104.095 17.2618 103.438 16.9375C101.718 16.0889 101.414 18.7345 101.188 19.7812C101.102 20.1774 101.013 20.5705 100.938 20.9688C100.257 24.5513 100.03 28.1942 100 31.8438C98.3574 37.2452 96.2521 42.5402 93.5 47.4062C92.4484 49.2656 91.321 51.0913 89.9688 52.75C89.596 53.2072 89.1608 53.6295 88.7188 54.0312C88.7139 54.0093 88.6922 53.9912 88.6875 53.9688C88.5688 53.4061 88.483 52.8229 88.4375 52.25C88.1994 49.2518 88.0484 46.2542 87.9062 43.25C87.7372 39.6787 87.4566 36.048 87.5625 32.4688C87.6604 29.1587 88.0248 25.8497 88.4062 22.5625C88.6157 20.7575 88.8161 18.9606 89.0312 17.1562C89.1055 16.6854 89.2112 16.2215 89.2812 15.75C89.4193 14.8216 89.5473 13.9011 89.6562 12.9688C89.6937 12.6485 89.7881 12.2538 89.7188 11.9375C89.6307 11.5359 89.5087 11.117 89.4062 10.7188C89.2516 10.1178 88.486 9.54183 87.9688 9.31251C87.4832 9.09722 87.0277 8.99247 86.5938 9.00001Z" fill="#262626"/>
<path d="M140.281 31.7188C137.683 32.1005 135.105 33.1648 132.875 34.4062C129.78 36.1293 126.853 38.3369 124.438 40.9375C119.532 46.2195 116.21 53.5178 114.219 60.375C112.278 67.0563 111.444 74.1246 111.156 81.0625C110.282 102.113 116.001 124.677 129.5 141.188C132.706 145.109 136.196 149.037 140.312 152.031C143.393 154.272 146.888 155.989 150.531 157.094C156.782 158.99 164.397 159.101 169.281 154.094C170.218 153.133 171.002 152.062 171.625 150.875C172.646 148.93 173.174 146.814 173.5 144.656C173.789 142.359 172.141 140.289 169.844 140C167.547 139.711 165.477 141.328 165.188 143.625C165.056 145.016 164.821 146.376 164.156 147.625C162.014 151.648 156.162 151.114 152.469 150.188C143.398 147.912 136.808 140.812 131.719 133.344C126.914 126.293 123.244 118.538 120.5 110.469C118.385 104.249 116.813 97.796 116.156 91.25C115.084 80.5631 116.273 69.7072 119.375 59.4375C121.076 53.8058 123.478 48.0323 127.281 43.4688C129.57 40.7223 132.487 38.322 135.594 36.5625C138.857 34.714 143.074 33.2708 146.625 35.2188C147.52 35.7098 148.241 36.3565 148.938 37.0938C149.351 37.5572 150.068 37.6011 150.531 37.1875C150.995 36.7739 151.039 36.0572 150.625 35.5938C149.812 34.6341 148.917 33.7953 147.844 33.125C145.499 31.66 142.88 31.337 140.281 31.7188Z" fill="#262626"/>
<path d="M58.2812 89.875C57.8463 89.906 57.5315 90.2838 57.5625 90.7188C57.7928 97.0724 58.4649 103.517 60.9375 109.438C62.2935 112.685 64.1734 115.689 66.5938 118.25C68.675 120.452 71.117 122.29 73.75 123.781C76.2954 125.223 79.06 126.347 81.9062 127.031C86.7639 128.199 91.6651 127.914 96.5 126.812C104.695 124.946 112.221 120.774 118.781 115.594C119.504 115.006 119.587 113.942 119 113.219C118.413 112.496 117.379 112.381 116.656 112.969C110.982 117.712 104.907 121.299 97.625 122.906C94.7121 123.549 91.7208 123.647 88.75 123.5C79.8032 123.056 70.8559 119.238 65.625 111.719C61.3274 105.541 59.9084 97.9311 59.125 90.5938C59.094 90.1588 58.7162 89.844 58.2812 89.875Z" fill="#262626"/>
<path d="M105.75 122.625C104.673 123.071 104.148 124.298 104.594 125.375C107.113 131.002 110.007 136.419 111.969 142.281C112.667 144.367 113.702 147.573 112.844 149.812C112.555 150.567 112.03 151.255 111.562 151.906C109.962 154.135 107.851 156.006 105.562 157.5C99.7818 161.273 92.3681 162.819 85.5938 161.281C82.4593 160.57 79.4225 159.129 76.6875 157.469C74.0325 155.857 71.3897 154.042 69.4375 151.594C68.604 150.548 67.8877 149.21 67.8438 147.844C67.8134 146.9 68.4027 145.848 68.8125 145.062C69.5252 143.697 70.4033 142.419 71.2812 141.156C73.3449 138.188 75.6276 135.367 77.9062 132.562C79.4323 130.684 81.0076 128.812 82.375 126.812C82.6535 126.449 82.5823 125.935 82.2188 125.656C81.8552 125.378 81.341 125.449 81.0625 125.812C79.5164 127.61 77.7812 129.245 76.0938 130.906C73.1414 133.813 70.1485 136.714 67.5 139.906C65.6528 142.133 63.3511 144.886 63.2188 147.938C62.9088 155.084 70.07 160.588 75.6875 163.562C78.1739 164.879 80.793 166.01 83.5312 166.688C91.1873 168.581 99.483 167.172 106.375 163.469C111.057 160.953 115.268 156.715 116.969 151.594C118.103 148.178 116.826 144.218 115.688 141C114.793 138.474 113.634 136.078 112.562 133.625C111.14 130.367 109.765 127.073 108.5 123.75C108.054 122.673 106.827 122.179 105.75 122.625Z" fill="#262626"/>
<path d="M99.4246 103.372C97.5103 103.958 98.6651 103.614 91.4682 106.496C86.5355 108.471 82.3593 107.728 80.163 107.727C83.9053 115.076 88.128 113.4 92.8703 110.575C95.7741 108.846 98.675 107.108 99.4246 103.372Z" fill="#262626"/>
<path d="M99.2636 65.7374C98.3612 65.812 97.2678 65.8392 97.437 66.5383C97.865 68.3064 99.5927 70.2521 101.379 68.3808C103.788 65.8583 100.898 65.6023 99.2636 65.7374Z" fill="#262626"/>
<path d="M66.4729 72.0233C67.1699 71.5074 70.0929 70.5222 69.7065 71.1603C68.5873 73.0088 68.8069 75.5361 66.4829 75.088C63.35 74.484 65.2103 72.9577 66.4729 72.0233Z" fill="#262626"/>
<path d="M74.946 85.6143C69.6171 84.7585 66.9998 88.4077 67.0013 90.8648C67.005 96.9228 74.3389 106.052 76.9771 103.376C78.5703 101.76 78.6416 97.3242 77.0524 90.6705C76.5229 88.4538 76.4659 85.8584 74.946 85.6143Z" fill="#262626"/>
<path d="M101.218 78.5517C99.1762 79.0224 97.5127 79.9743 97.1614 82.2873C96.2525 88.2712 100.589 98.5045 105.079 98.0198C108.691 97.6299 109.491 87.7708 107.432 81.272C106.677 78.8869 103.684 77.9832 101.218 78.5517Z" fill="#262626"/>
</g>
</svg>
