<svg width="180" height="180" viewBox="0 0 180 180" fill="none" xmlns="http://www.w3.org/2000/svg">
<rect width="180" height="180" fill="white"/>
<g opacity="0.995725">
<path d="M90.8214 1.45824L38.775 91.3909L90.9574 179.535L141.329 90.4652L90.8214 1.45824Z" fill="#BBFCCE"/>
<path d="M52.1291 26.7121C63.9196 33.3628 56.1941 70.6323 53.8032 82.6375C46.3376 120.124 42.9168 124.421 36.7973 134.689C34.245 138.972 25.899 143.89 18.9871 137.217C17.8076 136.079 14.276 126.416 25.9962 128.944C37.7165 131.472 51.0277 133.591 72.5149 124.168" stroke="#262626" stroke-width="8.28919" stroke-miterlimit="10" stroke-linecap="round" stroke-linejoin="round"/>
<path d="M65.9413 68.6942C81.7909 53.962 86.4386 10.6996 86.6944 7.42991C86.9501 4.16026 84.1431 22.5446 84.3836 29.3017C84.5672 34.4611 84.9882 42.4456 85.5778 47.5744C87.7915 66.8321 107.027 22.3767 102.819 12.7736C97.8095 30.141 102.562 60.0022 118.589 69.6492" stroke="#262626" stroke-width="8.28919" stroke-miterlimit="10" stroke-linecap="round" stroke-linejoin="round"/>
<path d="M149.778 31.353C142.183 22.3265 128.809 33.5138 125.375 37.7701C114.586 51.1406 111.904 74.0679 114.16 90.7438C116.726 109.707 125.701 130.505 140.495 142.952C149.193 150.271 167.768 154.591 169.334 139.144" stroke="#262626" stroke-width="10.2252" stroke-miterlimit="10" stroke-linecap="round" stroke-linejoin="round"/>
<path d="M58.3409 85.6508C59.1997 99.2961 62.6998 110.167 73.8886 116.55C86.8638 123.953 103.164 121.3 117.705 109.28" stroke="#262626" stroke-width="7.17724" stroke-miterlimit="10" stroke-linecap="round" stroke-linejoin="round"/>
<path d="M81.7215 121.323C78.518 125.594 65.5453 137.909 65.5453 142.945C65.5453 150.204 76.2913 156.149 82.0418 158.24C93.3993 162.37 109.509 157.439 114.714 146.148C117.24 140.669 110.23 128.85 106.546 119.561" stroke="#262626" stroke-width="7.53888" stroke-miterlimit="10" stroke-linecap="round" stroke-linejoin="round"/>
<path d="M99.4246 98.3715C97.5103 98.9577 98.6651 98.6138 91.4682 101.496C86.5355 103.471 82.3593 102.728 80.163 102.727C83.9053 110.076 88.128 108.4 92.8703 105.575C95.7741 103.846 98.675 102.108 99.4246 98.3715Z" fill="#262626"/>
<path d="M99.2636 60.7374C98.3612 60.812 97.2678 60.8392 97.437 61.5383C97.865 63.3064 99.5927 65.2521 101.379 63.3808C103.788 60.8583 100.898 60.6023 99.2636 60.7374Z" fill="#262626"/>
<path d="M66.4729 67.0233C67.1699 66.5074 70.0929 65.5222 69.7065 66.1603C68.5873 68.0088 68.8069 70.5361 66.4829 70.088C63.35 69.484 65.2103 67.9577 66.4729 67.0233Z" fill="#262626"/>
<path d="M74.946 80.6143C69.6171 79.7585 66.9998 83.4077 67.0013 85.8648C67.005 91.9228 74.3389 101.052 76.9771 98.3762C78.5703 96.7603 78.6416 92.3242 77.0524 85.6705C76.5229 83.4538 76.4659 80.8584 74.946 80.6143Z" fill="#262626"/>
<path d="M101.218 73.5517C99.1762 74.0224 97.5127 74.9743 97.1614 77.2873C96.2525 83.2712 100.589 93.5045 105.079 93.0198C108.691 92.6299 109.491 82.7708 107.432 76.272C106.677 73.8869 103.684 72.9832 101.218 73.5517Z" fill="#262626"/>
</g>
</svg>
