<svg width="61" height="118" viewBox="0 0 61 118" fill="none" xmlns="http://www.w3.org/2000/svg">
<path d="M36.9062 0.812524C36.6799 0.869324 36.4731 1.03402 36.3438 1.25002C36.085 1.68202 36.2242 2.24122 36.6562 2.50002C39.4283 4.30492 40.5837 7.60312 41.1875 10.7188C42.4347 17.154 41.8639 23.9551 41.0625 30.4062C39.898 39.7807 37.765 49.0048 35.5938 58.1875C33.3281 67.7694 30.9963 77.376 27.9688 86.75C26.93 89.966 25.8303 93.159 24.5312 96.281C23.418 98.957 22.1124 101.538 20.75 104.094C18.5587 103.921 16.3722 103.68 14.2188 103.25C11.1649 102.64 7.7612 101.494 4.6562 102.531C0.394403 103.956 0.198203 109.512 2.2812 112.875C2.6495 113.47 3.1776 113.967 3.6875 114.438C8.8539 119.207 16.1943 118.946 21.6562 114.812C24.0553 112.997 25.6041 110.461 27.2188 107.969C27.2443 107.929 27.2558 107.883 27.2812 107.844C29.7395 107.984 32.1886 108.045 34.6562 107.906C42.9798 107.44 51.0986 105.18 58.875 102.281C60.5985 101.538 61.3683 99.536 60.625 97.812C59.8817 96.089 57.8798 95.319 56.1562 96.062C47.6992 100.243 38.7468 103.456 29.2812 104.156C31.7459 99.707 33.8355 95.079 35.25 90.156C37.9272 80.838 39.5483 71.206 41.1562 61.6562C42.9629 50.9274 44.6857 40.1687 45.125 29.2812C45.3954 22.5787 45.4261 15.4617 43.375 9.00002C42.3462 5.75882 40.6474 2.63172 37.5938 0.937524C37.3777 0.808124 37.1326 0.755724 36.9062 0.812524ZM8.8125 104.969C10.457 105.14 12.0673 105.562 13.6875 105.875C15.5655 106.237 17.458 106.579 19.3438 106.906C18.7936 107.975 18.186 109.014 17.375 109.875C16.0698 111.26 14.3901 112.379 12.5312 112.844C9.848 113.515 7.1179 112.546 5.25 110.969C4.7863 110.577 4.5728 109.732 4.4062 109.188C4.2721 108.749 4.1547 108.271 4.125 107.812C3.9389 104.938 6.5871 104.737 8.8125 104.969Z" fill="#262626"/>
</svg>
