<svg width="57" height="70" viewBox="0 0 57 70" fill="none" xmlns="http://www.w3.org/2000/svg">
<path d="M21.5938 1.35748e-05C20.2919 0.0226236 19.2661 0.973224 18.7812 2.25001C18.3766 3.31561 18.2877 4.57331 18.0938 5.68751C17.6808 8.05901 17.3391 10.4528 17.0625 12.8438C16.7058 15.927 16.4562 19.0437 16.3438 22.1562C16.3017 22.4046 16.293 22.6581 16.25 22.9062C14.73 31.6801 12.7002 40.4456 9.4375 48.75C7.2482 54.3225 4.4788 59.6783 0.312499 64.0312C-0.047601 64.3833 -0.0708044 64.9836 0.281196 65.3438C0.633296 65.7039 1.2336 65.6958 1.5938 65.3438C8.3929 59.1104 12.4153 50.4322 15.5625 41.9062C16.0907 40.4753 16.5213 39.0106 17 37.5625C17.0114 37.6868 17.0198 37.8133 17.0312 37.9375C17.1281 38.9871 17.2261 40.015 17.3438 41.0625C17.7049 44.2782 18.0608 49.9265 22 50.9375C25.752 51.9005 28.6052 47.5355 30.1562 44.8438C32.4135 40.9264 34.0775 36.6694 35.5 32.375C36.666 45.9902 40.235 60.197 51.781 68.5C53.359 69.5022 55.435 69.0469 56.438 67.4688C57.44 65.8906 56.984 63.7835 55.406 62.7812C49.588 59.6098 45.537 54.3116 42.656 48.4375C39.36 41.7151 37.57 34.4538 37.125 27.0312C37.896 24.2704 38.6 21.4778 39.062 18.6562C39.506 15.9522 39.836 13.1049 39.406 10.375C39.336 9.92881 39.095 8.26181 38.438 7.93751C36.718 7.08891 36.414 9.73451 36.188 10.7812C36.102 11.1774 36.013 11.5705 35.938 11.9688C35.257 15.5513 35.03 19.1942 35 22.8438C33.3574 28.2452 31.2521 33.5402 28.5 38.4062C27.4484 40.2656 26.321 42.0913 24.9688 43.75C24.596 44.2072 24.1608 44.6295 23.7188 45.0312C23.7139 45.0093 23.6922 44.9912 23.6875 44.9688C23.5688 44.4061 23.483 43.8229 23.4375 43.25C23.1994 40.2518 23.0484 37.2542 22.9062 34.25C22.7372 30.6787 22.4566 27.048 22.5625 23.4688C22.6604 20.1587 23.0248 16.8497 23.4062 13.5625C23.6157 11.7575 23.8161 9.96061 24.0312 8.15621C24.1055 7.68541 24.2112 7.22151 24.2812 6.75001C24.4193 5.82161 24.5473 4.90111 24.6562 3.96881C24.6937 3.64851 24.7881 3.25381 24.7188 2.93751C24.6307 2.53591 24.5087 2.11701 24.4062 1.71881C24.2516 1.11781 23.486 0.541834 22.9688 0.312514C22.4832 0.0972236 22.0277 -0.00752643 21.5938 1.35748e-05Z" fill="#262626"/>
</svg>
