<svg width="45" height="48" viewBox="0 0 45 48" fill="none" xmlns="http://www.w3.org/2000/svg">
<path d="M35.4246 38.372C33.5103 38.958 34.6651 38.614 27.4682 41.496C22.5355 43.471 18.3593 42.728 16.163 42.727C19.9053 50.076 24.128 48.4 28.8703 45.575C31.7741 43.846 34.675 42.108 35.4246 38.372Z" fill="#262626"/>
<path d="M35.2636 0.737423C34.3612 0.812023 33.2678 0.839226 33.437 1.53833C33.865 3.30643 35.5927 5.25212 37.379 3.38082C39.788 0.858325 36.898 0.602323 35.2636 0.737423Z" fill="#262626"/>
<path d="M2.47291 7.02331C3.16991 6.50741 6.09291 5.52221 5.70651 6.16031C4.58731 8.00881 4.80691 10.5361 2.48291 10.088C-0.649988 9.48401 1.21031 7.95771 2.47291 7.02331Z" fill="#262626"/>
<path d="M10.946 20.6143C5.61712 19.7585 2.99981 23.4077 3.00131 25.8648C3.00501 31.9228 10.3389 41.052 12.9771 38.376C14.5703 36.76 14.6416 32.3242 13.0524 25.6705C12.5229 23.4538 12.4659 20.8584 10.946 20.6143Z" fill="#262626"/>
<path d="M37.218 13.5517C35.1762 14.0224 33.5127 14.9743 33.1614 17.2873C32.2525 23.2712 36.589 33.5045 41.079 33.0198C44.691 32.6299 45.491 22.7708 43.432 16.272C42.677 13.8869 39.684 12.9832 37.218 13.5517Z" fill="#262626"/>
</svg>
