<svg width="63" height="39" viewBox="0 0 63 39" fill="none" xmlns="http://www.w3.org/2000/svg">
<path d="M1.2812 0.87503C0.8463 0.90603 0.531499 1.28383 0.562499 1.71883C0.792799 8.07243 1.4649 14.517 3.9375 20.438C5.2935 23.685 7.1734 26.689 9.5938 29.25C11.675 31.452 14.117 33.29 16.75 34.781C19.2954 36.223 22.06 37.347 24.9062 38.031C29.7639 39.199 34.6651 38.914 39.5 37.812C47.695 35.946 55.221 31.774 61.781 26.594C62.504 26.006 62.587 24.942 62 24.219C61.413 23.496 60.379 23.381 59.656 23.969C53.982 28.712 47.907 32.299 40.625 33.906C37.7121 34.549 34.7208 34.647 31.75 34.5C22.8032 34.056 13.8559 30.238 8.625 22.719C4.3274 16.541 2.9084 8.93113 2.125 1.59383C2.094 1.15883 1.7162 0.84403 1.2812 0.87503Z" fill="#262626"/>
</svg>
