<svg width="55" height="46" viewBox="0 0 55 46" fill="none" xmlns="http://www.w3.org/2000/svg">
<path d="M42.75 0.625012C41.673 1.07101 41.148 2.29801 41.594 3.37501C44.113 9.00201 47.007 14.419 48.969 20.281C49.667 22.367 50.702 25.573 49.844 27.812C49.555 28.567 49.03 29.255 48.562 29.906C46.962 32.135 44.851 34.006 42.562 35.5C36.7818 39.273 29.3681 40.819 22.5938 39.281C19.4593 38.57 16.4225 37.129 13.6875 35.469C11.0325 33.857 8.38971 32.042 6.43751 29.594C5.60401 28.548 4.88771 27.21 4.84381 25.844C4.81341 24.9 5.40271 23.848 5.81251 23.062C6.52521 21.697 7.4033 20.419 8.2812 19.156C10.3449 16.188 12.6276 13.367 14.9062 10.562C16.4323 8.68401 18.0076 6.81201 19.375 4.81201C19.6535 4.44901 19.5823 3.93501 19.2188 3.65601C18.8552 3.37801 18.341 3.44901 18.0625 3.81201C16.5164 5.61001 14.7812 7.24502 13.0938 8.90602C10.1414 11.813 7.14851 14.714 4.50001 17.906C2.65281 20.133 0.351105 22.886 0.218805 25.938C-0.091195 33.084 7.07001 38.588 12.6875 41.562C15.1739 42.879 17.793 44.01 20.5312 44.688C28.1873 46.581 36.483 45.172 43.375 41.469C48.057 38.953 52.268 34.715 53.969 29.594C55.103 26.178 53.826 22.218 52.688 19C51.793 16.474 50.634 14.078 49.562 11.625C48.14 8.36701 46.765 5.07301 45.5 1.75001C45.054 0.673012 43.827 0.179012 42.75 0.625012Z" fill="#262626"/>
</svg>
